<svg width="68" height="16" viewBox="0 0 68 16" fill="none" xmlns="http://www.w3.org/2000/svg">
<path d="M10.25 9.54L8.49 4.73C8.40333 4.51667 8.31333 4.26333 8.22 3.97C8.12667 3.67667 8.03333 3.36 7.94 3.02C7.85333 3.36 7.76333 3.68 7.67 3.98C7.57667 4.27333 7.48667 4.53 7.4 4.75L5.65 9.54H10.25ZM15 15H12.92C12.6867 15 12.4967 14.9433 12.35 14.83C12.2033 14.71 12.0933 14.5633 12.02 14.39L10.94 11.44H4.95L3.87 14.39C3.81667 14.5433 3.71333 14.6833 3.56 14.81C3.40667 14.9367 3.21667 15 2.99 15H0.89L6.58 0.539999H9.32L15 15ZM22.3319 7.36C22.0519 7.02 21.7452 6.78 21.4119 6.64C21.0852 6.5 20.7319 6.43 20.3519 6.43C19.9785 6.43 19.6419 6.5 19.3419 6.64C19.0419 6.78 18.7852 6.99333 18.5719 7.28C18.3585 7.56 18.1952 7.92 18.0819 8.36C17.9685 8.79333 17.9119 9.30667 17.9119 9.9C17.9119 10.5 17.9585 11.01 18.0519 11.43C18.1519 11.8433 18.2919 12.1833 18.4719 12.45C18.6519 12.71 18.8719 12.9 19.1319 13.02C19.3919 13.1333 19.6819 13.19 20.0019 13.19C20.5152 13.19 20.9519 13.0833 21.3119 12.87C21.6719 12.6567 22.0119 12.3533 22.3319 11.96V7.36ZM24.8019 0.139999V15H23.2919C22.9652 15 22.7585 14.85 22.6719 14.55L22.4619 13.56C22.0485 14.0333 21.5719 14.4167 21.0319 14.71C20.4985 15.0033 19.8752 15.15 19.1619 15.15C18.6019 15.15 18.0885 15.0333 17.6219 14.8C17.1552 14.5667 16.7519 14.23 16.4119 13.79C16.0785 13.3433 15.8185 12.7933 15.6319 12.14C15.4519 11.4867 15.3619 10.74 15.3619 9.9C15.3619 9.14 15.4652 8.43333 15.6719 7.78C15.8785 7.12667 16.1752 6.56 16.5619 6.08C16.9485 5.6 17.4119 5.22667 17.9519 4.96C18.4919 4.68667 19.0985 4.55 19.7719 4.55C20.3452 4.55 20.8352 4.64 21.2419 4.82C21.6485 5 22.0119 5.24333 22.3319 5.55V0.139999H24.8019ZM42.7595 0.669999V15H41.0595V4.47C41.0595 4.33 41.0629 4.18 41.0695 4.02C41.0829 3.86 41.0962 3.69667 41.1095 3.53L36.1895 12.49C36.0362 12.79 35.8029 12.94 35.4895 12.94H35.2095C34.8962 12.94 34.6629 12.79 34.5095 12.49L29.4895 3.49C29.5295 3.84333 29.5495 4.17 29.5495 4.47V15H27.8495V0.669999H29.2795C29.4529 0.669999 29.5862 0.686666 29.6795 0.719999C29.7729 0.753332 29.8629 0.846666 29.9495 0.999999L34.8995 9.82C34.9795 9.98 35.0562 10.1467 35.1295 10.32C35.2095 10.4933 35.2829 10.67 35.3495 10.85C35.4162 10.67 35.4862 10.4933 35.5595 10.32C35.6329 10.14 35.7129 9.97 35.7995 9.81L40.6595 0.999999C40.7395 0.846666 40.8262 0.753332 40.9195 0.719999C41.0195 0.686666 41.1562 0.669999 41.3295 0.669999H42.7595ZM47.7275 4.87V15H45.9475V4.87H47.7275ZM48.1075 1.69C48.1075 1.86333 48.0708 2.02667 47.9975 2.18C47.9308 2.32667 47.8375 2.46 47.7175 2.58C47.6042 2.69333 47.4675 2.78333 47.3075 2.85C47.1542 2.91667 46.9908 2.95 46.8175 2.95C46.6442 2.95 46.4808 2.91667 46.3275 2.85C46.1808 2.78333 46.0508 2.69333 45.9375 2.58C45.8242 2.46 45.7342 2.32667 45.6675 2.18C45.6008 2.02667 45.5675 1.86333 45.5675 1.69C45.5675 1.51667 45.6008 1.35333 45.6675 1.2C45.7342 1.04 45.8242 0.903333 45.9375 0.789999C46.0508 0.67 46.1808 0.576666 46.3275 0.509999C46.4808 0.443332 46.6442 0.409999 46.8175 0.409999C46.9908 0.409999 47.1542 0.443332 47.3075 0.509999C47.4675 0.576666 47.6042 0.67 47.7175 0.789999C47.8375 0.903333 47.9308 1.04 47.9975 1.2C48.0708 1.35333 48.1075 1.51667 48.1075 1.69ZM52.3322 6.34C52.5522 6.09333 52.7855 5.87 53.0322 5.67C53.2789 5.47 53.5389 5.3 53.8122 5.16C54.0922 5.01333 54.3855 4.90333 54.6922 4.83C55.0055 4.75 55.3422 4.71 55.7022 4.71C56.2555 4.71 56.7422 4.80333 57.1622 4.99C57.5889 5.17 57.9422 5.43 58.2222 5.77C58.5089 6.10333 58.7255 6.50667 58.8722 6.98C59.0189 7.45333 59.0922 7.97667 59.0922 8.55V15H57.3022V8.55C57.3022 7.78333 57.1255 7.19 56.7722 6.77C56.4255 6.34333 55.8955 6.13 55.1822 6.13C54.6555 6.13 54.1622 6.25667 53.7022 6.51C53.2489 6.76333 52.8289 7.10667 52.4422 7.54V15H50.6522V4.87H51.7222C51.9755 4.87 52.1322 4.99333 52.1922 5.24L52.3322 6.34ZM64.7778 15.16C63.9778 15.16 63.3611 14.9367 62.9278 14.49C62.5011 14.0433 62.2878 13.4 62.2878 12.56V6.36H61.0678C60.9611 6.36 60.8711 6.33 60.7978 6.27C60.7245 6.20333 60.6878 6.10333 60.6878 5.97V5.26L62.3478 5.05L62.7578 1.92C62.7778 1.82 62.8211 1.74 62.8878 1.68C62.9611 1.61333 63.0545 1.58 63.1678 1.58H64.0678V5.07H66.9978V6.36H64.0678V12.44C64.0678 12.8667 64.1711 13.1833 64.3778 13.39C64.5845 13.5967 64.8511 13.7 65.1778 13.7C65.3645 13.7 65.5245 13.6767 65.6578 13.63C65.7978 13.5767 65.9178 13.52 66.0178 13.46C66.1178 13.4 66.2011 13.3467 66.2678 13.3C66.3411 13.2467 66.4045 13.22 66.4578 13.22C66.5511 13.22 66.6345 13.2767 66.7078 13.39L67.2278 14.24C66.9211 14.5267 66.5511 14.7533 66.1178 14.92C65.6845 15.08 65.2378 15.16 64.7778 15.16Z" fill="#3FB488"/>
</svg>
